<svg width="56.693" height="56.693" xmlns="http://www.w3.org/2000/svg">

 <g>
  <title>background</title>
  <rect fill="none" id="canvas_background" height="402" width="582" y="-1" x="-1"/>
 </g>
 <g>
  <title>Layer 1</title>
  <path id="svg_2" fill="#ff5656" d="m52.63,44.097l-19.572,-34.477c-0.951,-1.682 -2.732,-2.719 -4.664,-2.719c-1.934,0 -3.714,1.037 -4.668,2.719l-19.569,34.477c-0.943,1.66 -0.933,3.699 0.03,5.35c0.959,1.648 2.726,2.666 4.636,2.666l39.138,0c1.91,0 3.676,-1.018 4.637,-2.666c0.964,-1.651 0.971,-3.69 0.032,-5.35z"/>
  <path id="svg_3" fill="#FFFFFF" d="m31.066,45.778c-0.657,0.582 -1.433,0.877 -2.313,0.877c-0.888,0 -1.675,-0.291 -2.339,-0.866c-0.677,-0.591 -1.02,-1.415 -1.02,-2.454c0,-0.91 0.325,-1.698 0.962,-2.338c0.64,-0.639 1.434,-0.964 2.357,-0.964c0.924,0 1.724,0.325 2.376,0.96c0.653,0.643 0.988,1.432 0.988,2.342c0.002,1.027 -0.34,1.844 -1.011,2.443z"/>
  <path id="svg_4" fill="#FFFFFF" d="m31.937,23.576l-0.853,9.763c-0.097,1.215 -0.302,2.133 -0.629,2.8c-0.36,0.736 -0.989,1.126 -1.82,1.126c-0.844,0 -1.469,-0.383 -1.803,-1.104c-0.295,-0.644 -0.501,-1.577 -0.624,-2.857l-0.638,-9.502c-0.119,-1.876 -0.175,-3.188 -0.175,-4.005c0,-1.184 0.321,-2.126 0.955,-2.805c0.641,-0.684 1.489,-1.032 2.522,-1.032c1.276,0 2.148,0.463 2.595,1.375c0.409,0.841 0.612,2.003 0.612,3.554c0,0.875 -0.05,1.778 -0.142,2.687z"/>
 </g>
</svg>