<?xml version="1.0" encoding="UTF-8"?>
<svg xmlns="http://www.w3.org/2000/svg" xmlns:xlink="http://www.w3.org/1999/xlink" width="360" zoomAndPan="magnify" viewBox="0 0 270 60" height="80" preserveAspectRatio="xMidYMid meet" version="1.0">
  <defs>
    <g></g>
    <clipPath id="9a99ae183e">
      <path d="M 6 6.132812 L 33.75 6.132812 L 33.75 54.132812 L 6 54.132812 Z M 6 6.132812 " clip-rule="nonzero"></path>
    </clipPath>
    <clipPath id="adc0377b6d">
      <path d="M 38.351562 49.132812 L 117.851562 49.132812 L 117.851562 53.632812 L 38.351562 53.632812 Z M 38.351562 49.132812 " clip-rule="nonzero"></path>
    </clipPath>
  </defs>
  <g clip-path="url(#9a99ae183e)">
    <path fill="#fbc646" d="M 14.222656 6.136719 L 32.039062 6.136719 L 24.5 20.226562 L 33.753906 20.226562 L 11.367188 54.132812 L 17.304688 29.160156 L 5.996094 29.160156 L 14.222656 6.136719 " fill-opacity="1" fill-rule="nonzero"></path>
  </g>
  <g fill="#333333" fill-opacity="1">
    <g transform="translate(40.488345, 42.774892)">
      <g>
        <path d="M 15.515625 0 L 7.890625 0 L 7.890625 -22.015625 L 0.984375 -22.015625 L 0.984375 -28.25 L 22.390625 -28.25 L 22.390625 -22.015625 L 15.515625 -22.015625 Z M 15.515625 0 "></path>
      </g>
    </g>
  </g>
  <g fill="#333333" fill-opacity="1">
    <g transform="translate(63.869597, 42.774892)">
      <g>
        <path d="M 12.828125 -28.25 C 16.410156 -28.25 19.09375 -27.46875 20.875 -25.90625 C 22.664062 -24.351562 23.5625 -22.140625 23.5625 -19.265625 C 23.5625 -17.972656 23.375 -16.734375 23 -15.546875 C 22.632812 -14.367188 22.035156 -13.316406 21.203125 -12.390625 C 20.378906 -11.460938 19.28125 -10.726562 17.90625 -10.1875 C 16.53125 -9.644531 14.835938 -9.375 12.828125 -9.375 L 10.6875 -9.375 L 10.6875 0 L 3.046875 0 L 3.046875 -28.25 Z M 12.65625 -22.09375 L 10.6875 -22.09375 L 10.6875 -15.59375 L 12.1875 -15.59375 C 12.851562 -15.59375 13.46875 -15.703125 14.03125 -15.921875 C 14.59375 -16.148438 15.046875 -16.519531 15.390625 -17.03125 C 15.734375 -17.539062 15.90625 -18.222656 15.90625 -19.078125 C 15.90625 -19.960938 15.640625 -20.6875 15.109375 -21.25 C 14.578125 -21.8125 13.757812 -22.09375 12.65625 -22.09375 Z M 12.65625 -22.09375 "></path>
      </g>
    </g>
  </g>
  <g fill="#333333" fill-opacity="1">
    <g transform="translate(88.874009, 42.774892)">
      <g>
        <path d="M 21.53125 -8.578125 C 21.53125 -7.046875 21.140625 -5.59375 20.359375 -4.21875 C 19.585938 -2.851562 18.382812 -1.742188 16.75 -0.890625 C 15.125 -0.0351562 13.023438 0.390625 10.453125 0.390625 C 9.160156 0.390625 8.03125 0.328125 7.0625 0.203125 C 6.09375 0.0859375 5.1875 -0.0976562 4.34375 -0.359375 C 3.507812 -0.617188 2.640625 -0.960938 1.734375 -1.390625 L 1.734375 -8.1875 C 3.265625 -7.414062 4.8125 -6.828125 6.375 -6.421875 C 7.9375 -6.015625 9.347656 -5.8125 10.609375 -5.8125 C 11.367188 -5.8125 11.988281 -5.898438 12.46875 -6.078125 C 12.957031 -6.265625 13.316406 -6.515625 13.546875 -6.828125 C 13.773438 -7.148438 13.890625 -7.515625 13.890625 -7.921875 C 13.890625 -8.410156 13.71875 -8.828125 13.375 -9.171875 C 13.039062 -9.515625 12.5 -9.867188 11.75 -10.234375 C 11 -10.609375 10.015625 -11.078125 8.796875 -11.640625 C 7.753906 -12.128906 6.8125 -12.628906 5.96875 -13.140625 C 5.125 -13.660156 4.398438 -14.25 3.796875 -14.90625 C 3.203125 -15.570312 2.742188 -16.347656 2.421875 -17.234375 C 2.097656 -18.128906 1.9375 -19.179688 1.9375 -20.390625 C 1.9375 -22.203125 2.382812 -23.722656 3.28125 -24.953125 C 4.175781 -26.179688 5.425781 -27.101562 7.03125 -27.71875 C 8.632812 -28.34375 10.484375 -28.65625 12.578125 -28.65625 C 14.421875 -28.65625 16.078125 -28.445312 17.546875 -28.03125 C 19.023438 -27.625 20.351562 -27.15625 21.53125 -26.625 L 19.1875 -20.734375 C 17.976562 -21.285156 16.785156 -21.722656 15.609375 -22.046875 C 14.441406 -22.378906 13.351562 -22.546875 12.34375 -22.546875 C 11.6875 -22.546875 11.148438 -22.460938 10.734375 -22.296875 C 10.316406 -22.140625 10.007812 -21.925781 9.8125 -21.65625 C 9.613281 -21.382812 9.515625 -21.078125 9.515625 -20.734375 C 9.515625 -20.296875 9.679688 -19.898438 10.015625 -19.546875 C 10.359375 -19.203125 10.929688 -18.828125 11.734375 -18.421875 C 12.546875 -18.015625 13.644531 -17.492188 15.03125 -16.859375 C 16.414062 -16.234375 17.585938 -15.5625 18.546875 -14.84375 C 19.515625 -14.132812 20.253906 -13.28125 20.765625 -12.28125 C 21.273438 -11.28125 21.53125 -10.046875 21.53125 -8.578125 Z M 21.53125 -8.578125 "></path>
      </g>
    </g>
  </g>
  <g fill="#333333" fill-opacity="1">
    <g transform="translate(111.714207, 42.774892)">
      <g>
        <path d="M 13.328125 -5.578125 C 14.015625 -5.578125 14.640625 -5.648438 15.203125 -5.796875 C 15.773438 -5.941406 16.367188 -6.125 16.984375 -6.34375 L 16.984375 -0.828125 C 16.160156 -0.472656 15.285156 -0.179688 14.359375 0.046875 C 13.441406 0.273438 12.269531 0.390625 10.84375 0.390625 C 9.425781 0.390625 8.175781 0.164062 7.09375 -0.28125 C 6.007812 -0.726562 5.164062 -1.5 4.5625 -2.59375 C 3.96875 -3.695312 3.671875 -5.234375 3.671875 -7.203125 L 3.671875 -16.234375 L 1.03125 -16.234375 L 1.03125 -19.3125 L 4.390625 -21.6875 L 6.34375 -26.28125 L 11.28125 -26.28125 L 11.28125 -21.890625 L 16.65625 -21.890625 L 16.65625 -16.234375 L 11.28125 -16.234375 L 11.28125 -7.703125 C 11.28125 -6.992188 11.460938 -6.460938 11.828125 -6.109375 C 12.191406 -5.753906 12.691406 -5.578125 13.328125 -5.578125 Z M 13.328125 -5.578125 "></path>
      </g>
    </g>
  </g>
  <g fill="#333333" fill-opacity="1">
    <g transform="translate(129.9168, 42.774892)">
      <g>
        <path d="M 15.828125 -22.28125 C 16.242188 -22.28125 16.675781 -22.25 17.125 -22.1875 C 17.570312 -22.132812 17.90625 -22.085938 18.125 -22.046875 L 17.453125 -14.921875 C 17.203125 -14.984375 16.882812 -15.035156 16.5 -15.078125 C 16.113281 -15.128906 15.570312 -15.15625 14.875 -15.15625 C 14.40625 -15.15625 13.898438 -15.109375 13.359375 -15.015625 C 12.816406 -14.921875 12.300781 -14.726562 11.8125 -14.4375 C 11.332031 -14.15625 10.9375 -13.71875 10.625 -13.125 C 10.320312 -12.539062 10.171875 -11.753906 10.171875 -10.765625 L 10.171875 0 L 2.609375 0 L 2.609375 -21.890625 L 8.234375 -21.890625 L 9.40625 -18.390625 L 9.78125 -18.390625 C 10.175781 -19.117188 10.6875 -19.773438 11.3125 -20.359375 C 11.9375 -20.941406 12.640625 -21.40625 13.421875 -21.75 C 14.203125 -22.101562 15.003906 -22.28125 15.828125 -22.28125 Z M 15.828125 -22.28125 "></path>
      </g>
    </g>
  </g>
  <g fill="#333333" fill-opacity="1">
    <g transform="translate(148.486544, 42.774892)">
      <g>
        <path d="M 12.46875 -22.28125 C 14.59375 -22.28125 16.425781 -21.910156 17.96875 -21.171875 C 19.519531 -20.429688 20.710938 -19.316406 21.546875 -17.828125 C 22.378906 -16.347656 22.796875 -14.492188 22.796875 -12.265625 L 22.796875 -8.90625 L 9.296875 -8.90625 C 9.359375 -7.757812 9.785156 -6.816406 10.578125 -6.078125 C 11.367188 -5.347656 12.539062 -4.984375 14.09375 -4.984375 C 15.457031 -4.984375 16.707031 -5.117188 17.84375 -5.390625 C 18.988281 -5.660156 20.164062 -6.078125 21.375 -6.640625 L 21.375 -1.21875 C 20.320312 -0.664062 19.171875 -0.257812 17.921875 0 C 16.671875 0.257812 15.09375 0.390625 13.1875 0.390625 C 10.976562 0.390625 9.003906 0 7.265625 -0.78125 C 5.523438 -1.570312 4.15625 -2.789062 3.15625 -4.4375 C 2.15625 -6.09375 1.65625 -8.210938 1.65625 -10.796875 C 1.65625 -13.429688 2.109375 -15.59375 3.015625 -17.28125 C 3.921875 -18.976562 5.179688 -20.234375 6.796875 -21.046875 C 8.421875 -21.867188 10.3125 -22.28125 12.46875 -22.28125 Z M 12.734375 -17.140625 C 11.847656 -17.140625 11.101562 -16.859375 10.5 -16.296875 C 9.90625 -15.734375 9.554688 -14.851562 9.453125 -13.65625 L 15.9375 -13.65625 C 15.925781 -14.300781 15.796875 -14.890625 15.546875 -15.421875 C 15.304688 -15.953125 14.953125 -16.367188 14.484375 -16.671875 C 14.015625 -16.984375 13.429688 -17.140625 12.734375 -17.140625 Z M 12.734375 -17.140625 "></path>
      </g>
    </g>
  </g>
  <g fill="#333333" fill-opacity="1">
    <g transform="translate(172.949903, 42.774892)">
      <g>
        <path d="M 13.296875 -22.28125 C 16.066406 -22.28125 18.226562 -21.59375 19.78125 -20.21875 C 21.34375 -18.851562 22.125 -16.898438 22.125 -14.359375 L 22.125 0 L 16.890625 0 L 15.4375 -2.90625 L 15.28125 -2.90625 C 14.664062 -2.125 14.03125 -1.492188 13.375 -1.015625 C 12.726562 -0.535156 11.984375 -0.179688 11.140625 0.046875 C 10.304688 0.273438 9.285156 0.390625 8.078125 0.390625 C 6.816406 0.390625 5.679688 0.132812 4.671875 -0.375 C 3.671875 -0.894531 2.878906 -1.675781 2.296875 -2.71875 C 1.722656 -3.769531 1.4375 -5.09375 1.4375 -6.6875 C 1.4375 -9.03125 2.242188 -10.769531 3.859375 -11.90625 C 5.484375 -13.039062 7.835938 -13.675781 10.921875 -13.8125 L 14.578125 -13.9375 L 14.578125 -14.25 C 14.578125 -15.226562 14.332031 -15.921875 13.84375 -16.328125 C 13.363281 -16.742188 12.71875 -16.953125 11.90625 -16.953125 C 11.039062 -16.953125 10.078125 -16.800781 9.015625 -16.5 C 7.953125 -16.195312 6.882812 -15.804688 5.8125 -15.328125 L 3.640625 -20.3125 C 4.898438 -20.957031 6.328125 -21.445312 7.921875 -21.78125 C 9.515625 -22.113281 11.304688 -22.28125 13.296875 -22.28125 Z M 14.609375 -9.78125 L 12.875 -9.703125 C 11.476562 -9.648438 10.5 -9.40625 9.9375 -8.96875 C 9.382812 -8.539062 9.109375 -7.925781 9.109375 -7.125 C 9.109375 -6.382812 9.304688 -5.835938 9.703125 -5.484375 C 10.097656 -5.128906 10.625 -4.953125 11.28125 -4.953125 C 12.195312 -4.953125 12.976562 -5.238281 13.625 -5.8125 C 14.28125 -6.394531 14.609375 -7.148438 14.609375 -8.078125 Z M 14.609375 -9.78125 "></path>
      </g>
    </g>
  </g>
  <g fill="#333333" fill-opacity="1">
    <g transform="translate(197.606495, 42.774892)">
      <g>
        <path d="M 29.328125 -22.28125 C 31.828125 -22.28125 33.738281 -21.640625 35.0625 -20.359375 C 36.382812 -19.085938 37.046875 -17.050781 37.046875 -14.25 L 37.046875 0 L 29.484375 0 L 29.484375 -11.90625 C 29.484375 -13.5625 29.257812 -14.710938 28.8125 -15.359375 C 28.375 -16.015625 27.71875 -16.34375 26.84375 -16.34375 C 25.613281 -16.34375 24.765625 -15.804688 24.296875 -14.734375 C 23.828125 -13.671875 23.59375 -12.160156 23.59375 -10.203125 L 23.59375 0 L 16.015625 0 L 16.015625 -11.90625 C 16.015625 -12.957031 15.921875 -13.804688 15.734375 -14.453125 C 15.546875 -15.109375 15.265625 -15.585938 14.890625 -15.890625 C 14.523438 -16.191406 14.054688 -16.34375 13.484375 -16.34375 C 12.617188 -16.34375 11.945312 -16.082031 11.46875 -15.5625 C 10.988281 -15.039062 10.648438 -14.273438 10.453125 -13.265625 C 10.265625 -12.265625 10.171875 -11.035156 10.171875 -9.578125 L 10.171875 0 L 2.609375 0 L 2.609375 -21.890625 L 8.3125 -21.890625 L 9.40625 -19.1875 L 9.625 -19.1875 C 10.007812 -19.78125 10.507812 -20.304688 11.125 -20.765625 C 11.738281 -21.234375 12.46875 -21.601562 13.3125 -21.875 C 14.15625 -22.144531 15.113281 -22.28125 16.1875 -22.28125 C 17.800781 -22.28125 19.128906 -22.007812 20.171875 -21.46875 C 21.210938 -20.925781 22.0625 -20.179688 22.71875 -19.234375 L 22.953125 -19.234375 C 23.648438 -20.210938 24.546875 -20.960938 25.640625 -21.484375 C 26.734375 -22.015625 27.960938 -22.28125 29.328125 -22.28125 Z M 29.328125 -22.28125 "></path>
      </g>
    </g>
  </g>
  <g fill="#333333" fill-opacity="1">
    <g transform="translate(237.180712, 42.774892)">
      <g>
        <path d="M 18.875 -6.71875 C 18.875 -5.332031 18.566406 -4.101562 17.953125 -3.03125 C 17.335938 -1.96875 16.347656 -1.128906 14.984375 -0.515625 C 13.628906 0.0859375 11.84375 0.390625 9.625 0.390625 C 8.0625 0.390625 6.664062 0.304688 5.4375 0.140625 C 4.207031 -0.0234375 2.960938 -0.347656 1.703125 -0.828125 L 1.703125 -6.875 C 3.078125 -6.25 4.476562 -5.796875 5.90625 -5.515625 C 7.34375 -5.242188 8.472656 -5.109375 9.296875 -5.109375 C 10.148438 -5.109375 10.769531 -5.195312 11.15625 -5.375 C 11.550781 -5.5625 11.75 -5.84375 11.75 -6.21875 C 11.75 -6.539062 11.613281 -6.8125 11.34375 -7.03125 C 11.082031 -7.257812 10.613281 -7.519531 9.9375 -7.8125 C 9.257812 -8.113281 8.3125 -8.519531 7.09375 -9.03125 C 5.882812 -9.53125 4.875 -10.078125 4.0625 -10.671875 C 3.257812 -11.265625 2.65625 -11.972656 2.25 -12.796875 C 1.851562 -13.617188 1.65625 -14.628906 1.65625 -15.828125 C 1.65625 -17.960938 2.476562 -19.570312 4.125 -20.65625 C 5.78125 -21.738281 7.96875 -22.28125 10.6875 -22.28125 C 12.125 -22.28125 13.476562 -22.117188 14.75 -21.796875 C 16.03125 -21.484375 17.351562 -21.023438 18.71875 -20.421875 L 16.65625 -15.5625 C 15.570312 -16.050781 14.476562 -16.441406 13.375 -16.734375 C 12.269531 -17.035156 11.382812 -17.1875 10.71875 -17.1875 C 10.132812 -17.1875 9.679688 -17.109375 9.359375 -16.953125 C 9.035156 -16.796875 8.875 -16.566406 8.875 -16.265625 C 8.875 -15.992188 8.984375 -15.753906 9.203125 -15.546875 C 9.429688 -15.347656 9.859375 -15.113281 10.484375 -14.84375 C 11.117188 -14.570312 12.039062 -14.191406 13.25 -13.703125 C 14.53125 -13.179688 15.582031 -12.628906 16.40625 -12.046875 C 17.238281 -11.460938 17.859375 -10.75 18.265625 -9.90625 C 18.671875 -9.070312 18.875 -8.007812 18.875 -6.71875 Z M 18.875 -6.71875 "></path>
      </g>
    </g>
  </g>
  <g clip-path="url(#adc0377b6d)">
    <path fill="#1d4ed8" d="M 75.585938 49.167969 C 73.257812 49.195312 71.285156 49.238281 69.808594 49.304688 C 69.390625 49.324219 68.65625 49.355469 68.171875 49.375 C 66.921875 49.429688 62.304688 49.703125 60.492188 49.832031 C 60.222656 49.851562 59.46875 49.902344 58.820312 49.9375 C 58.171875 49.976562 57.5625 50.015625 57.46875 50.027344 C 57.375 50.039062 56.304688 50.117188 55.09375 50.203125 C 53.878906 50.289062 52.230469 50.40625 51.421875 50.46875 C 50.617188 50.523438 49.121094 50.628906 48.09375 50.695312 C 44.859375 50.910156 43.453125 51.03125 42.257812 51.191406 C 41.84375 51.25 41.570312 51.300781 41.527344 51.335938 C 41.488281 51.367188 41.296875 51.40625 41.035156 51.4375 C 39.972656 51.558594 39.527344 51.640625 38.972656 51.832031 C 38.617188 51.957031 38.589844 51.972656 38.5 52.117188 C 38.429688 52.238281 38.417969 52.285156 38.449219 52.335938 C 38.480469 52.382812 38.480469 52.40625 38.4375 52.4375 C 38.363281 52.492188 38.363281 52.664062 38.4375 52.71875 C 38.484375 52.757812 38.484375 52.769531 38.4375 52.804688 C 38.351562 52.863281 38.386719 52.941406 38.542969 53.070312 C 38.625 53.132812 38.679688 53.207031 38.667969 53.230469 C 38.636719 53.308594 38.683594 53.386719 38.792969 53.4375 C 39.078125 53.574219 40.644531 53.628906 41.859375 53.550781 C 42.320312 53.515625 43.140625 53.472656 43.683594 53.441406 C 44.226562 53.410156 44.769531 53.378906 44.882812 53.371094 C 44.996094 53.363281 45.304688 53.34375 45.566406 53.335938 C 45.828125 53.324219 46.152344 53.304688 46.289062 53.300781 C 46.542969 53.285156 47.113281 53.261719 47.90625 53.230469 C 48.15625 53.222656 48.601562 53.203125 48.894531 53.191406 C 49.414062 53.167969 49.585938 53.195312 49.175781 53.230469 C 48.371094 53.300781 48.414062 53.3125 49.484375 53.296875 C 51.914062 53.261719 56.402344 53.050781 59.160156 52.839844 C 59.789062 52.796875 60.664062 52.734375 61.101562 52.699219 C 61.542969 52.671875 62.398438 52.605469 63 52.558594 C 63.609375 52.511719 64.589844 52.441406 65.1875 52.402344 C 65.785156 52.363281 66.90625 52.28125 67.679688 52.226562 C 69.039062 52.128906 70.566406 52.027344 72.410156 51.925781 C 72.894531 51.902344 73.304688 51.871094 73.316406 51.859375 C 73.335938 51.839844 72.285156 51.820312 72.042969 51.835938 C 71.976562 51.84375 71.917969 51.828125 71.917969 51.8125 C 71.917969 51.792969 71.949219 51.78125 71.988281 51.78125 C 72.046875 51.785156 72.78125 51.75 73.363281 51.714844 C 73.5 51.707031 73.902344 51.691406 74.257812 51.679688 C 74.613281 51.671875 75.074219 51.65625 75.285156 51.644531 C 75.492188 51.636719 76.066406 51.621094 76.558594 51.609375 C 77.046875 51.601562 77.554688 51.582031 77.679688 51.574219 C 77.804688 51.566406 78.445312 51.550781 79.105469 51.539062 C 79.761719 51.53125 80.515625 51.515625 80.777344 51.503906 C 81.039062 51.496094 82.058594 51.480469 83.039062 51.46875 C 84.027344 51.460938 85.039062 51.441406 85.304688 51.433594 C 87.691406 51.359375 104.660156 51.339844 107.054688 51.40625 C 107.902344 51.429688 109.125 51.464844 109.773438 51.488281 C 111.199219 51.527344 112.953125 51.554688 112.871094 51.53125 C 112.835938 51.527344 112.535156 51.496094 112.207031 51.472656 L 111.597656 51.425781 L 112.167969 51.421875 C 112.484375 51.414062 112.773438 51.394531 112.816406 51.378906 C 112.875 51.355469 112.867188 51.347656 112.769531 51.355469 C 112.699219 51.363281 112.644531 51.355469 112.644531 51.339844 C 112.644531 51.324219 112.75 51.3125 112.882812 51.3125 C 113.03125 51.3125 113.101562 51.324219 113.066406 51.34375 C 113.035156 51.363281 113.078125 51.367188 113.179688 51.355469 C 113.4375 51.328125 116.191406 51.558594 117.25 51.695312 C 117.402344 51.710938 117.484375 51.707031 117.53125 51.675781 C 117.566406 51.652344 117.648438 51.640625 117.722656 51.652344 C 117.808594 51.667969 117.851562 51.660156 117.851562 51.632812 C 117.851562 51.609375 117.816406 51.59375 117.765625 51.59375 C 117.714844 51.59375 117.644531 51.566406 117.601562 51.539062 C 117.53125 51.492188 117.53125 51.488281 117.617188 51.464844 C 117.730469 51.433594 117.722656 51.390625 117.597656 51.367188 C 116.273438 51.105469 110.710938 50.636719 104.523438 50.257812 C 103.878906 50.21875 102.929688 50.152344 102.414062 50.117188 C 101.902344 50.078125 101.113281 50.019531 100.664062 49.992188 C 100.21875 49.960938 99.546875 49.914062 99.183594 49.886719 C 98.816406 49.859375 98.089844 49.808594 97.566406 49.78125 C 97.046875 49.753906 96.09375 49.695312 95.457031 49.65625 C 92.488281 49.480469 91.285156 49.433594 87.699219 49.355469 C 87.082031 49.339844 86.53125 49.328125 86.472656 49.324219 C 86.414062 49.320312 86.039062 49.316406 85.640625 49.3125 C 85.203125 49.308594 84.925781 49.292969 84.941406 49.273438 C 84.953125 49.253906 84.929688 49.238281 84.894531 49.242188 C 84.597656 49.246094 84.136719 49.226562 83.914062 49.195312 C 83.585938 49.152344 78.800781 49.136719 75.585938 49.167969 Z M 71.164062 50.609375 C 71.148438 50.625 70.890625 50.648438 70.585938 50.65625 C 70.28125 50.671875 69.96875 50.6875 69.882812 50.695312 C 69.800781 50.703125 69.492188 50.71875 69.199219 50.730469 C 68.90625 50.742188 68.582031 50.757812 68.476562 50.765625 C 68.375 50.777344 68.117188 50.789062 67.90625 50.800781 C 67.699219 50.8125 67.464844 50.824219 67.394531 50.835938 C 67.320312 50.84375 67.074219 50.859375 66.84375 50.871094 C 66.613281 50.886719 66.375 50.898438 66.308594 50.90625 C 66.25 50.914062 66.03125 50.929688 65.835938 50.941406 C 65.484375 50.964844 65.28125 50.976562 64.769531 51.011719 C 64.632812 51.019531 64.371094 51.035156 64.179688 51.046875 C 63.699219 51.074219 63.296875 51.101562 63.097656 51.117188 C 62.898438 51.136719 62.117188 51.191406 61.652344 51.222656 C 61.472656 51.234375 61.253906 51.25 61.15625 51.257812 C 61.0625 51.265625 60.839844 51.285156 60.664062 51.292969 C 60.484375 51.304688 60.246094 51.320312 60.128906 51.328125 C 60.015625 51.335938 59.785156 51.355469 59.617188 51.363281 C 59.195312 51.390625 58.929688 51.410156 58.097656 51.46875 C 57.152344 51.535156 55.847656 51.617188 55.320312 51.644531 C 55.09375 51.65625 54.765625 51.671875 54.597656 51.679688 C 54.429688 51.691406 54.175781 51.707031 54.027344 51.714844 C 53.320312 51.753906 52.699219 51.777344 52.714844 51.757812 C 52.738281 51.738281 53.023438 51.707031 53.515625 51.679688 C 53.691406 51.671875 53.898438 51.65625 53.96875 51.644531 C 54.042969 51.636719 54.246094 51.621094 54.425781 51.609375 C 55.035156 51.570312 55.242188 51.558594 55.453125 51.539062 C 55.566406 51.53125 56.398438 51.476562 57.296875 51.417969 C 58.199219 51.359375 59.265625 51.285156 59.675781 51.257812 C 61.773438 51.109375 64.453125 50.933594 66.652344 50.800781 C 66.800781 50.792969 67.097656 50.777344 67.316406 50.765625 C 67.539062 50.753906 68.007812 50.734375 68.363281 50.714844 C 69.1875 50.671875 69.632812 50.648438 70.320312 50.621094 C 70.625 50.609375 70.875 50.597656 70.878906 50.59375 C 70.902344 50.574219 71.1875 50.59375 71.164062 50.609375 Z M 90.324219 50.714844 C 92.644531 50.753906 93.410156 50.765625 96.199219 50.835938 C 99.445312 50.921875 100.636719 50.964844 101.101562 51.019531 C 101.261719 51.035156 101.277344 51.042969 101.199219 51.070312 C 101.144531 51.082031 101.125 51.09375 101.152344 51.097656 C 101.175781 51.101562 101.199219 51.117188 101.199219 51.136719 C 101.199219 51.175781 101.273438 51.175781 88.421875 51.1875 C 83.140625 51.191406 78.53125 51.207031 78.171875 51.21875 C 77.648438 51.238281 74.535156 51.253906 74.261719 51.246094 C 74.121094 51.238281 74.238281 51.191406 74.421875 51.183594 C 75.105469 51.152344 75.570312 51.136719 76.214844 51.113281 C 76.621094 51.105469 77.011719 51.089844 77.070312 51.082031 C 77.136719 51.074219 77.324219 51.070312 77.496094 51.070312 C 77.757812 51.066406 77.804688 51.058594 77.789062 51.011719 C 77.773438 50.976562 77.789062 50.960938 77.832031 50.960938 C 77.871094 50.960938 77.886719 50.976562 77.871094 51.011719 C 77.859375 51.054688 77.890625 51.066406 78.054688 51.066406 C 78.234375 51.066406 78.265625 51.054688 78.289062 50.984375 L 78.3125 50.90625 L 78.339844 50.996094 L 78.367188 51.082031 L 78.390625 51 C 78.410156 50.933594 78.4375 50.921875 78.5625 50.929688 C 78.71875 50.929688 79.988281 50.898438 80.589844 50.871094 C 80.785156 50.863281 81.53125 50.847656 82.242188 50.832031 C 82.953125 50.820312 83.601562 50.804688 83.6875 50.800781 C 83.769531 50.796875 84.238281 50.789062 84.726562 50.789062 C 85.234375 50.789062 85.605469 50.769531 85.605469 50.753906 C 85.605469 50.730469 84.808594 50.71875 83.621094 50.714844 C 82.53125 50.714844 81.628906 50.703125 81.617188 50.695312 C 81.589844 50.664062 88.285156 50.679688 90.324219 50.714844 Z M 78.117188 50.972656 C 78.117188 50.984375 78.101562 51 78.078125 51.011719 C 78.058594 51.023438 78.039062 51.015625 78.039062 51 C 78.039062 50.976562 78.058594 50.960938 78.078125 50.960938 C 78.101562 50.960938 78.117188 50.964844 78.117188 50.972656 Z M 68.8125 51.089844 C 68.785156 51.097656 68.730469 51.097656 68.699219 51.089844 C 68.660156 51.078125 68.683594 51.070312 68.742188 51.070312 C 68.808594 51.070312 68.835938 51.078125 68.8125 51.089844 Z M 68.066406 51.121094 C 68.054688 51.132812 68.019531 51.136719 67.992188 51.125 C 67.964844 51.113281 67.976562 51.105469 68.015625 51.105469 C 68.058594 51.101562 68.082031 51.109375 68.066406 51.121094 Z M 101.351562 51.136719 C 101.351562 51.152344 101.335938 51.171875 101.316406 51.171875 C 101.292969 51.171875 101.265625 51.152344 101.253906 51.136719 C 101.242188 51.113281 101.257812 51.101562 101.289062 51.101562 C 101.324219 51.101562 101.351562 51.113281 101.351562 51.136719 Z M 67.652344 51.160156 C 67.613281 51.167969 67.554688 51.167969 67.519531 51.160156 C 67.480469 51.148438 67.511719 51.140625 67.582031 51.140625 C 67.65625 51.140625 67.6875 51.148438 67.652344 51.160156 Z M 67.101562 51.195312 C 67.050781 51.203125 66.96875 51.203125 66.910156 51.195312 C 66.847656 51.1875 66.890625 51.179688 66.992188 51.179688 C 67.101562 51.179688 67.144531 51.1875 67.101562 51.195312 Z M 74.128906 51.25 C 74.078125 51.296875 74.027344 51.261719 74.066406 51.210938 C 74.078125 51.1875 74.109375 51.179688 74.132812 51.191406 C 74.152344 51.207031 74.152344 51.226562 74.128906 51.25 Z M 66.53125 51.230469 C 66.480469 51.238281 66.398438 51.238281 66.339844 51.230469 C 66.277344 51.222656 66.320312 51.214844 66.421875 51.214844 C 66.53125 51.214844 66.574219 51.222656 66.53125 51.230469 Z M 107.636719 51.230469 C 107.609375 51.238281 107.5625 51.238281 107.539062 51.230469 C 107.515625 51.21875 107.53125 51.214844 107.585938 51.214844 C 107.640625 51.214844 107.660156 51.21875 107.636719 51.230469 Z M 111.246094 51.230469 C 111.222656 51.238281 111.175781 51.238281 111.152344 51.230469 C 111.125 51.21875 111.144531 51.214844 111.199219 51.214844 C 111.25 51.214844 111.269531 51.21875 111.246094 51.230469 Z M 65.941406 51.265625 C 65.878906 51.273438 65.789062 51.273438 65.730469 51.265625 C 65.671875 51.257812 65.71875 51.25 65.835938 51.25 C 65.949219 51.25 65.996094 51.257812 65.941406 51.265625 Z M 108.546875 51.265625 C 108.480469 51.273438 108.367188 51.273438 108.300781 51.265625 C 108.234375 51.257812 108.285156 51.25 108.421875 51.25 C 108.558594 51.25 108.613281 51.257812 108.546875 51.265625 Z M 111.894531 51.265625 C 111.84375 51.273438 111.761719 51.273438 111.703125 51.265625 C 111.644531 51.257812 111.683594 51.25 111.789062 51.25 C 111.894531 51.25 111.941406 51.257812 111.894531 51.265625 Z M 65.273438 51.300781 C 65.25 51.308594 65.203125 51.308594 65.179688 51.300781 C 65.152344 51.289062 65.171875 51.285156 65.226562 51.285156 C 65.277344 51.285156 65.296875 51.289062 65.273438 51.300781 Z M 65.441406 51.296875 C 65.429688 51.308594 65.398438 51.3125 65.371094 51.300781 C 65.339844 51.289062 65.351562 51.28125 65.394531 51.28125 C 65.433594 51.277344 65.457031 51.285156 65.441406 51.296875 Z M 109.25 51.300781 C 109.195312 51.308594 109.09375 51.308594 109.023438 51.300781 C 108.957031 51.292969 109 51.285156 109.125 51.285156 C 109.25 51.285156 109.308594 51.292969 109.25 51.300781 Z M 112.425781 51.300781 C 112.378906 51.308594 112.292969 51.308594 112.238281 51.300781 C 112.175781 51.292969 112.21875 51.285156 112.320312 51.285156 C 112.425781 51.285156 112.472656 51.292969 112.425781 51.300781 Z M 109.957031 51.335938 C 109.90625 51.34375 109.820312 51.34375 109.765625 51.335938 C 109.703125 51.328125 109.746094 51.320312 109.847656 51.320312 C 109.957031 51.320312 110 51.328125 109.957031 51.335938 Z M 110.5625 51.371094 C 110.515625 51.378906 110.4375 51.378906 110.390625 51.371094 C 110.34375 51.363281 110.382812 51.355469 110.476562 51.355469 C 110.570312 51.355469 110.609375 51.363281 110.5625 51.371094 Z M 111.246094 51.40625 C 111.199219 51.414062 111.113281 51.414062 111.058594 51.40625 C 110.996094 51.398438 111.039062 51.390625 111.140625 51.390625 C 111.246094 51.390625 111.292969 51.398438 111.246094 51.40625 Z M 52.5625 51.769531 C 52.5625 51.789062 52.476562 51.800781 52.367188 51.796875 L 52.164062 51.792969 L 52.335938 51.769531 C 52.429688 51.753906 52.519531 51.742188 52.535156 51.742188 C 52.550781 51.738281 52.5625 51.746094 52.5625 51.769531 Z M 52.675781 51.746094 C 52.675781 51.757812 52.660156 51.777344 52.640625 51.785156 C 52.621094 51.796875 52.601562 51.789062 52.601562 51.773438 C 52.601562 51.75 52.621094 51.734375 52.640625 51.734375 C 52.660156 51.734375 52.675781 51.742188 52.675781 51.746094 Z M 52.144531 51.78125 C 52.144531 51.792969 52.128906 51.8125 52.105469 51.820312 C 52.089844 51.832031 52.070312 51.824219 52.070312 51.808594 C 52.070312 51.785156 52.089844 51.769531 52.105469 51.769531 C 52.128906 51.769531 52.144531 51.777344 52.144531 51.78125 Z M 71.835938 51.828125 C 71.796875 51.835938 71.734375 51.835938 71.703125 51.828125 C 71.664062 51.816406 71.695312 51.8125 71.765625 51.8125 C 71.839844 51.8125 71.867188 51.816406 71.835938 51.828125 Z M 47.496094 52.421875 C 47.484375 52.433594 47.449219 52.4375 47.421875 52.425781 C 47.390625 52.417969 47.402344 52.40625 47.445312 52.40625 C 47.488281 52.402344 47.507812 52.414062 47.496094 52.421875 Z M 47.648438 52.421875 C 47.636719 52.433594 47.601562 52.4375 47.574219 52.425781 C 47.542969 52.417969 47.554688 52.40625 47.597656 52.40625 C 47.640625 52.402344 47.660156 52.414062 47.648438 52.421875 Z M 47.074219 52.460938 C 47 52.46875 46.878906 52.46875 46.808594 52.460938 C 46.746094 52.453125 46.808594 52.449219 46.953125 52.449219 C 47.101562 52.449219 47.15625 52.453125 47.074219 52.460938 Z M 45.984375 52.527344 C 44.371094 52.644531 42.582031 52.828125 42.527344 52.878906 C 42.515625 52.894531 42.710938 52.894531 42.960938 52.878906 C 43.210938 52.871094 43.582031 52.847656 43.78125 52.839844 C 43.976562 52.832031 44.238281 52.8125 44.359375 52.804688 C 44.535156 52.789062 44.578125 52.796875 44.578125 52.839844 C 44.578125 52.867188 44.554688 52.898438 44.53125 52.910156 C 44.484375 52.925781 44.847656 52.910156 45.433594 52.875 C 45.601562 52.859375 45.730469 52.859375 45.71875 52.871094 C 45.695312 52.890625 43.949219 53.027344 43.570312 53.039062 C 43.46875 53.042969 43.3125 53.054688 43.226562 53.074219 C 43.144531 53.089844 42.914062 53.113281 42.714844 53.125 C 42.292969 53.152344 42.261719 53.15625 41.839844 53.203125 C 41.660156 53.226562 41.3125 53.253906 41.058594 53.265625 C 40.808594 53.273438 40.324219 53.300781 39.976562 53.320312 C 39.417969 53.359375 39.320312 53.355469 39.054688 53.300781 C 38.828125 53.253906 38.742188 53.21875 38.699219 53.15625 C 38.582031 52.988281 38.699219 52.960938 39.578125 52.945312 C 39.933594 52.941406 40.59375 52.902344 41.042969 52.863281 C 41.734375 52.804688 44.125 52.625 45.679688 52.515625 C 45.921875 52.496094 46.226562 52.484375 46.363281 52.484375 C 46.5 52.484375 46.332031 52.503906 45.984375 52.527344 Z M 39.140625 52.6875 C 39.140625 52.710938 38.910156 52.753906 38.777344 52.753906 C 38.707031 52.75 38.707031 52.75 38.773438 52.699219 C 38.84375 52.652344 39.140625 52.640625 39.140625 52.6875 Z M 44.804688 52.832031 C 44.804688 52.847656 44.78125 52.859375 44.75 52.859375 C 44.71875 52.859375 44.679688 52.859375 44.664062 52.863281 C 44.648438 52.863281 44.632812 52.847656 44.625 52.832031 C 44.617188 52.808594 44.652344 52.800781 44.710938 52.804688 C 44.765625 52.804688 44.804688 52.816406 44.804688 52.832031 Z M 45.859375 52.878906 C 45.847656 52.890625 45.8125 52.894531 45.785156 52.882812 C 45.757812 52.875 45.769531 52.863281 45.808594 52.863281 C 45.851562 52.859375 45.875 52.871094 45.859375 52.878906 Z M 45.859375 52.878906 " fill-opacity="1" fill-rule="nonzero"></path>
  </g>
  <path fill="#1d4ed8" d="M 85.644531 50.753906 C 85.644531 50.769531 85.667969 50.785156 85.699219 50.785156 C 85.730469 50.785156 85.761719 50.769531 85.773438 50.753906 C 85.78125 50.742188 85.757812 50.726562 85.71875 50.726562 C 85.679688 50.726562 85.644531 50.742188 85.644531 50.753906 Z M 85.644531 50.753906 " fill-opacity="1" fill-rule="nonzero"></path>
  <path fill="#1d4ed8" d="M 44.292969 52.929688 C 44.261719 52.976562 44.3125 52.976562 44.386719 52.929688 C 44.4375 52.902344 44.4375 52.894531 44.378906 52.894531 C 44.347656 52.894531 44.304688 52.910156 44.292969 52.929688 Z M 44.292969 52.929688 " fill-opacity="1" fill-rule="nonzero"></path>
  <path fill="#1d4ed8" d="M 112.910156 51.386719 C 112.910156 51.402344 112.929688 51.410156 112.949219 51.398438 C 112.96875 51.390625 112.984375 51.371094 112.984375 51.359375 C 112.984375 51.355469 112.96875 51.347656 112.949219 51.347656 C 112.929688 51.347656 112.910156 51.363281 112.910156 51.386719 Z M 112.910156 51.386719 " fill-opacity="1" fill-rule="nonzero"></path>
</svg>
